<svg width="30" height="30" viewBox="0 0 30 30" fill="none" xmlns="http://www.w3.org/2000/svg">
<path d="M6.52575 5.21836L7.6917 4.4197C8.78294 3.67217 10.2607 3.90881 11.1436 4.97252L12.9016 7.09179C13.6677 8.01433 13.7918 9.33302 13.2084 10.351L11.5876 13.1836C12.1137 14.43 12.9267 15.5682 14.0265 16.5981C15.0784 17.5979 16.3198 18.377 17.6775 18.8895L20.1296 17.1622C21.0586 16.509 22.3017 16.5681 23.2141 17.3084L25.3392 19.0331C26.4014 19.8942 26.716 21.4259 26.0776 22.6171L25.393 23.8938C24.7118 25.1643 23.4272 25.9373 22.0183 25.9214C18.6943 25.8848 15.0551 23.9083 11.1006 19.9918C7.1406 16.0683 5.04616 12.3604 4.81731 8.86808C4.72111 7.39877 5.3719 6.00947 6.52815 5.21764" fill="black"/>
</svg>
