<svg width="36" height="29" viewBox="0 0 36 29" fill="none" xmlns="http://www.w3.org/2000/svg">
<path d="M0 2.05556C0 1.643 0.162551 1.24733 0.451893 0.955611C0.741235 0.663888 1.13367 0.5 1.54286 0.5H34.4571C34.8663 0.5 35.2588 0.663888 35.5481 0.955611C35.8375 1.24733 36 1.643 36 2.05556C36 2.46811 35.8375 2.86378 35.5481 3.1555C35.2588 3.44722 34.8663 3.61111 34.4571 3.61111H1.54286C1.13367 3.61111 0.741235 3.44722 0.451893 3.1555C0.162551 2.86378 0 2.46811 0 2.05556ZM0 26.9444C0 26.5319 0.162551 26.1362 0.451893 25.8445C0.741235 25.5528 1.13367 25.3889 1.54286 25.3889H34.4571C34.8663 25.3889 35.2588 25.5528 35.5481 25.8445C35.8375 26.1362 36 26.5319 36 26.9444C36 27.357 35.8375 27.7527 35.5481 28.0444C35.2588 28.3361 34.8663 28.5 34.4571 28.5H1.54286C1.13367 28.5 0.741235 28.3361 0.451893 28.0444C0.162551 27.7527 0 27.357 0 26.9444ZM1.54286 12.9444C1.13367 12.9444 0.741235 13.1083 0.451893 13.4001C0.162551 13.6918 0 14.0874 0 14.5C0 14.9126 0.162551 15.3082 0.451893 15.5999C0.741235 15.8917 1.13367 16.0556 1.54286 16.0556H34.4571C34.8663 16.0556 35.2588 15.8917 35.5481 15.5999C35.8375 15.3082 36 14.9126 36 14.5C36 14.0874 35.8375 13.6918 35.5481 13.4001C35.2588 13.1083 34.8663 12.9444 34.4571 12.9444H1.54286Z" fill="#04446A"/>
</svg>
