<svg width="216" height="509" viewBox="0 0 216 509" fill="none" xmlns="http://www.w3.org/2000/svg">
<path d="M79.7409 51C79.7409 36.5333 84.3609 24.5867 93.6009 15.16C102.934 5.64 114.694 0.879999 128.881 0.879999C143.441 0.879999 155.434 5.87333 164.861 15.86L151.701 26.78C145.821 20.4333 138.214 17.26 128.881 17.26C119.641 17.26 112.034 20.4333 106.061 26.78C100.088 33.1267 97.1009 41.2 97.1009 51C97.1009 60.8 100.134 68.8733 106.201 75.22C112.268 81.5667 119.968 84.74 129.301 84.74C136.581 84.74 143.068 82.64 148.761 78.44V59.82H123.841V44.42H165.561V86.14C156.134 96.1267 144.048 101.12 129.301 101.12C114.928 101.12 103.074 96.36 93.7409 86.84C84.4076 77.4133 79.7409 65.4667 79.7409 51Z" fill="#EFEFEF"/>
<path d="M42.7768 202V104H84.3568C92.7568 104 99.6635 106.613 105.077 111.84C110.49 117.067 113.197 123.693 113.197 131.72C113.197 138.627 111.097 144.553 106.897 149.5C102.79 154.447 97.3301 157.573 90.5168 158.88L116.277 202H107.037L81.5568 159.44H51.1768V202H42.7768ZM84.3568 111.7H51.1768V151.74H84.3568C90.2368 151.74 95.0901 149.873 98.9168 146.14C102.837 142.313 104.797 137.507 104.797 131.72C104.797 125.933 102.837 121.173 98.9168 117.44C95.0901 113.613 90.2368 111.7 84.3568 111.7Z" fill="#0596A4"/>
<path d="M33.917 308H42.457L67.517 393.12L92.717 308H102.237L127.437 393.12L152.497 308H161.037L132.057 406H122.677L97.477 320.46L72.137 406H62.897L33.917 308Z" fill="#C26E1E"/>
<path d="M119.424 219.02C128.57 209.593 140.097 204.88 154.004 204.88C168.004 204.88 179.531 209.64 188.584 219.16C197.731 228.587 202.304 240.533 202.304 255C202.304 269.467 197.731 281.46 188.584 290.98C179.531 300.407 168.004 305.12 154.004 305.12C140.097 305.12 128.57 300.407 119.424 290.98C110.277 281.46 105.704 269.467 105.704 255C105.704 240.533 110.277 228.54 119.424 219.02ZM131.884 279.22C137.67 285.567 145.044 288.74 154.004 288.74C162.964 288.74 170.337 285.567 176.124 279.22C182.004 272.873 184.944 264.8 184.944 255C184.944 245.2 182.004 237.127 176.124 230.78C170.337 224.433 162.964 221.26 154.004 221.26C145.044 221.26 137.67 224.433 131.884 230.78C126.004 237.127 123.064 245.2 123.064 255C123.064 264.8 126.004 272.873 131.884 279.22Z" fill="#EFEFEF"/>
<path d="M3.52547 474.8H6.47747L8.81747 495.464L18.4295 474.8H21.7775L24.1175 495.464L33.7295 474.8H36.6815L24.9815 500H21.6695L19.3295 479.228L9.64547 500H6.36947L3.52547 474.8ZM39.3556 500H36.5116L39.6796 482H42.5236L39.3556 500ZM43.4236 477.644C42.9436 478.052 42.3916 478.256 41.7676 478.256C41.1436 478.256 40.6636 478.064 40.3276 477.68C40.0156 477.272 39.9076 476.756 40.0036 476.132C40.0996 475.484 40.3756 474.968 40.8316 474.584C41.3116 474.176 41.8756 473.972 42.5236 473.972C43.1476 473.972 43.6156 474.176 43.9276 474.584C44.2636 474.968 44.3836 475.484 44.2876 476.132C44.1916 476.756 43.9036 477.26 43.4236 477.644ZM46.2693 484.52L46.7013 482H50.0493L50.8413 477.608H53.6853L52.8933 482H58.3653L57.8973 484.52H52.4613L50.5533 495.284C50.4333 496.028 50.5773 496.616 50.9853 497.048C51.4173 497.456 52.0893 497.66 53.0013 497.66C53.9853 497.66 54.8733 497.528 55.6653 497.264L55.1973 499.784C54.3813 500.072 53.3973 500.216 52.2453 500.216C50.5653 500.216 49.3173 499.784 48.5013 498.92C47.7093 498.032 47.4453 496.832 47.7093 495.32L49.6173 484.52H46.2693ZM62.9806 500H60.1366L64.7806 473.72H67.5886L65.7526 484.196C67.6486 482.564 69.8566 481.748 72.3766 481.748C74.5846 481.748 76.2886 482.384 77.4886 483.656C78.6886 484.904 79.1206 486.512 78.7846 488.48L76.7686 500H73.9246L75.9406 488.444C76.1566 487.268 75.8446 486.308 75.0046 485.564C74.1886 484.82 73.0366 484.448 71.5486 484.448C69.9406 484.448 68.5246 484.904 67.3006 485.816C66.0766 486.704 65.2606 487.856 64.8526 489.272L62.9806 500ZM93.4028 500L97.8668 474.8H100.855L96.3908 500H93.4028ZM102.887 500L106.055 482H108.899L108.503 484.196C110.399 482.564 112.607 481.748 115.127 481.748C117.335 481.748 119.039 482.384 120.239 483.656C121.439 484.904 121.871 486.512 121.535 488.48L119.519 500H116.675L118.691 488.444C118.907 487.268 118.595 486.308 117.755 485.564C116.939 484.82 115.787 484.448 114.299 484.448C112.715 484.448 111.311 484.892 110.087 485.78C108.863 486.644 108.047 487.772 107.639 489.164L105.731 500H102.887ZM126.138 505.4L129.81 484.52H126.426L126.894 482H130.242L130.674 479.66C131.01 477.74 131.97 476.228 133.554 475.124C135.138 474.02 137.13 473.468 139.53 473.468L139.062 476.168C137.526 476.168 136.254 476.492 135.246 477.14C134.262 477.764 133.674 478.628 133.482 479.732L133.086 482H138.018L137.586 484.52H132.618L128.946 505.4H126.138ZM139.062 500L142.23 482H145.074L141.906 500H139.062ZM142.554 476.132C142.65 475.484 142.938 474.968 143.418 474.584C143.898 474.176 144.45 473.972 145.074 473.972C145.722 473.972 146.178 474.152 146.442 474.512C146.73 474.848 146.874 475.22 146.874 475.628C146.874 475.796 146.862 475.964 146.838 476.132C146.718 476.756 146.43 477.272 145.974 477.68C145.518 478.064 144.966 478.256 144.318 478.256C143.694 478.256 143.238 478.088 142.95 477.752C142.662 477.392 142.518 476.984 142.518 476.528C142.518 476.408 142.53 476.276 142.554 476.132ZM148.027 500L151.195 482H154.039L153.643 484.196C155.539 482.564 157.747 481.748 160.267 481.748C162.475 481.748 164.179 482.384 165.379 483.656C166.579 484.904 167.011 486.512 166.675 488.48L164.659 500H161.815L163.831 488.444C164.047 487.268 163.735 486.308 162.895 485.564C162.079 484.82 160.927 484.448 159.439 484.448C157.855 484.448 156.451 484.892 155.227 485.78C154.003 486.644 153.187 487.772 152.779 489.164L150.871 500H148.027ZM173.582 500H170.738L173.906 482H176.75L173.582 500ZM177.65 477.644C177.17 478.052 176.618 478.256 175.994 478.256C175.37 478.256 174.89 478.064 174.554 477.68C174.242 477.272 174.134 476.756 174.23 476.132C174.326 475.484 174.602 474.968 175.058 474.584C175.538 474.176 176.102 473.972 176.75 473.972C177.374 473.972 177.842 474.176 178.154 474.584C178.49 474.968 178.61 475.484 178.514 476.132C178.418 476.756 178.13 477.26 177.65 477.644ZM180.496 484.52L180.928 482H184.276L185.068 477.608H187.912L187.12 482H192.592L192.124 484.52H186.688L184.78 495.284C184.66 496.028 184.804 496.616 185.212 497.048C185.644 497.456 186.316 497.66 187.228 497.66C188.212 497.66 189.1 497.528 189.892 497.264L189.424 499.784C188.608 500.072 187.624 500.216 186.472 500.216C184.792 500.216 183.544 499.784 182.728 498.92C181.936 498.032 181.672 496.832 181.936 495.32L183.844 484.52H180.496ZM193.652 505.868L195.992 503.888C196.88 505.184 198.356 505.832 200.42 505.832C202.388 505.832 204.032 505.244 205.352 504.068C206.696 502.916 207.56 501.308 207.944 499.244L208.232 497.444C206.288 499.316 203.912 500.252 201.104 500.252C198.896 500.252 197.324 499.736 196.388 498.704C195.476 497.648 195.02 496.436 195.02 495.068C195.02 494.564 195.068 494.036 195.164 493.484L197.18 482H200.024L197.972 493.52C197.924 493.808 197.9 494.084 197.9 494.348C197.9 495.236 198.224 495.992 198.872 496.616C199.52 497.24 200.576 497.552 202.04 497.552C203.768 497.552 205.256 497.06 206.504 496.076C207.776 495.068 208.664 493.748 209.168 492.116L210.968 482H213.812L210.752 499.28C210.248 502.16 209.036 504.416 207.116 506.048C205.196 507.704 202.82 508.532 199.988 508.532C197.036 508.532 194.924 507.644 193.652 505.868Z" fill="white"/>
</svg>
